# xmcd
#
# Track frame offsets:
#	150
#	17751
#	33583
#	48214
#	64121
#	79485
#	96912
#	115141
#	135552
#	153653
#
# Disc length: 2296 seconds
#
# Revision: 0
# Processed by: cddbd v1.5.2PL0 Copyright (c) Steve Scherf et al.
# Submitted via: EasyCDDAExtractor 12.1.0.1
#
DISCID=8208f60a
DTITLE=Various Artist - Pure 70's Party - CD 3
DYEAR=2005
DGENRE=Pop
TTITLE0=Hot Chocolate - You Sexy Thing
TTITLE1=Stevie Wonder - Superstition
TTITLE2=Blondie - Heart of Glass
TTITLE3=Barry White - Playing Your Game Baby
TTITLE4=John Travolta - Greased Lightning
TTITLE5=David Essex - Gonna Make You A Star
TTITLE6=Elvis Presley - Suspicious Minds
TTITLE7=The Temptations - Papa Was A Rolling Stone
TTITLE8=Rod Stewart - You Wear It Well
TTITLE9=Carly Simon - You're So Vain
EXTD=
EXTT0=
EXTT1=
EXTT2=
EXTT3=
EXTT4=
EXTT5=
EXTT6=
EXTT7=
EXTT8=
EXTT9=
PLAYORDER=
